Coordinates
version=1
nRows=14
nColumns=40
inDegrees=yes

Units are S.I. units (second, meters, Newtons, ...)
Angles are in degrees.

endheader
time	pelvis_tilt	pelvis_list	pelvis_rotation	pelvis_tx	pelvis_ty	pelvis_tz	hip_flexion_r	hip_adduction_r	hip_rotation_r	knee_angle_r	knee_angle_r_beta	ankle_angle_r	subtalar_angle_r	mtp_angle_r	hip_flexion_l	hip_adduction_l	hip_rotation_l	knee_angle_l	knee_angle_l_beta	ankle_angle_l	subtalar_angle_l	mtp_angle_l	lumbar_extension	lumbar_bending	lumbar_rotation	arm_flex_r	arm_add_r	arm_rot_r	elbow_flex_r	pro_sup_r	wrist_flex_r	wrist_dev_r	arm_flex_l	arm_add_l	arm_rot_l	elbow_flex_l	pro_sup_l	wrist_flex_l	wrist_dev_l
     51.75000000	     -1.19199256	     -2.95551169	     -3.86584117	      1.00300746	      0.91527509	      0.39659703	     23.17581987	     -6.83510187	      0.67616195	     64.11072598	     64.11072598	      4.74811468	    -14.96461096	     -1.40338898	     17.93516648	     -1.23442468	     -4.63304070	     33.87031797	     33.87031797	     20.19039720	    -17.89079242	      8.53771329	    -10.33078189	      6.88349528	      3.23540560	     10.90568342	    -12.59619970	     -4.10991893	     29.31354648	     46.48628283	      0.00000000	      0.00000000	     21.36300759	    -12.42846898	     15.85917443	     36.50549711	     44.63094100	      0.00000000	      0.00000000
     51.77200000	     -1.18712756	     -3.02845123	     -4.53424971	      1.00244283	      0.91620870	      0.39622366	     24.38719597	     -6.52501692	      0.81469588	     64.27396379	     64.27396379	      4.72810132	    -15.79035835	     -1.02045252	     17.29007791	     -1.33464792	     -5.14032537	     33.34747575	     33.34747575	     20.36288645	    -17.93649652	      8.59506446	    -10.36096846	      6.94408664	      2.91029132	      8.05974338	    -12.75042599	     -4.16564473	     27.97662136	     46.52093721	      0.00000000	      0.00000000	     23.19124199	    -13.16942019	     15.38688323	     37.44068686	     44.72096231	      0.00000000	      0.00000000
     51.79400000	     -1.23589418	     -3.19787351	     -5.21542545	      1.00168251	      0.91774376	      0.39637319	     25.40870630	     -6.02818225	      0.91570552	     63.60839981	     63.60839981	      5.15721172	    -16.26927771	     -0.49951872	     16.55920482	     -1.57203640	     -5.68384850	     32.55536048	     32.55536048	     20.35893862	    -17.87645699	      8.62224737	    -10.44737493	      7.09819548	      3.06965247	      5.06986195	    -13.07203341	     -4.27291089	     26.54958308	     46.56272693	      0.00000000	      0.00000000	     25.10613496	    -13.71496892	     14.67920916	     38.86152478	     44.84504872	      0.00000000	      0.00000000
     51.81600000	     -1.50410370	     -3.39229496	     -5.80904715	      1.00066398	      0.91925301	      0.39688453	     26.42596212	     -5.53755876	      0.82413740	     62.15347420	     62.15347420	      5.85016553	    -16.22787892	     -0.50567642	     16.12959469	     -1.86922232	     -6.15602805	     31.83962803	     31.83962803	     20.34355611	    -17.83669469	      8.75874941	    -10.22560580	      7.27021535	      2.17303625	      2.78194256	    -13.14950089	     -4.32357530	     25.70770768	     46.58141018	      0.00000000	      0.00000000	     26.76473844	    -14.97803697	     14.22056777	     39.40565297	     44.91861670	      0.00000000	      0.00000000
     51.83800000	     -1.59146549	     -3.56460715	     -6.44724123	      0.99981010	      0.92171869	      0.39782006	     26.94502453	     -5.01084369	      0.80125139	     59.80322234	     59.80322234	      6.60851222	    -15.93268400	     -0.49007250	     15.04645752	     -2.10442487	     -6.73868738	     30.29608045	     30.29608045	     20.11693338	    -17.56825990	      8.69462043	    -10.37261344	      7.36325890	      2.83920676	     -0.39197211	    -13.37392954	     -4.38699859	     24.52775823	     46.60766195	      0.00000000	      0.00000000	     28.62873078	    -15.24225026	     13.21274052	     41.43323229	     45.07457702	      0.00000000	      0.00000000
     51.86000000	     -1.94981674	     -3.72067929	     -7.04739044	      0.99853514	      0.92363306	      0.39913159	     27.58309568	     -4.47323944	      0.76558563	     56.83277188	     56.83277188	      7.26923368	    -15.13951707	     -1.31525339	     14.45404386	     -2.41483587	     -7.35646112	     29.03591182	     29.03591182	     19.43579788	    -17.39431590	      7.75878080	    -10.32214452	      7.43380180	      2.87240982	     -3.35802483	    -13.45053850	     -4.70451424	     24.50789001	     46.60303996	      0.00000000	      0.00000000	     30.02620199	    -15.87755556	     11.12220752	     43.94760222	     45.35198610	      0.00000000	      0.00000000
     51.88200000	     -2.17052877	     -3.90703933	     -7.62776344	      0.99749429	      0.92571575	      0.40075017	     27.72518648	     -3.95687030	      0.60701281	     53.12654970	     53.12654970	      8.03373623	    -13.77997235	     -2.18715747	     13.59005705	     -2.71659054	     -7.96250262	     27.61637796	     27.61637796	     19.12176330	    -17.16027938	      7.27180947	    -10.33549535	      7.50273794	      2.86090804	     -5.84843580	    -13.45455703	     -4.81503737	     24.29123904	     46.59465191	      0.00000000	      0.00000000	     31.60674977	    -16.66138419	      9.62185134	     45.66788284	     45.54725190	      0.00000000	      0.00000000
     51.90400000	     -2.58614796	     -4.09340761	     -8.13673458	      0.99636846	      0.92734073	      0.40258292	     27.74613127	     -3.41173642	      0.37918981	     48.67586430	     48.67586430	      7.78080690	    -12.44381899	     -5.26328947	     12.95959203	     -3.07247674	     -8.59026990	     26.16837618	     26.16837618	     18.02285752	    -17.05102359	      5.10507679	    -10.21552054	      7.66045582	      2.50620034	     -8.60805708	    -13.48574049	     -5.03671309	     25.75049696	     46.51019535	      0.00000000	      0.00000000	     32.38036368	    -17.17454580	      5.66744476	     48.51207025	     46.01217638	      0.00000000	      0.00000000
     51.92600000	     -2.94314369	     -4.16620629	     -8.61695070	      0.99529416	      0.92877456	      0.40466105	     27.58336488	     -3.01513642	      0.06907436	     44.07200436	     44.07200436	      8.29770943	     -9.90742850	     -5.63601753	     12.36420731	     -3.29468105	     -9.16749003	     24.94055072	     24.94055072	     17.80155232	    -16.64015207	      4.99352479	    -10.11054656	      7.63987750	      2.65040639	    -10.74222906	    -13.28822543	     -4.90897699	     25.19223020	     46.50076399	      0.00000000	      0.00000000	     34.08462531	    -17.76734480	      4.79497449	     49.82669832	     46.13410939	      0.00000000	      0.00000000
     51.94800000	     -3.25625406	     -4.26074802	     -9.04519871	      0.99440394	      0.92990231	      0.40695471	     27.10543451	     -2.56725652	     -0.33477601	     39.16721409	     39.16721409	      8.59326043	     -7.09331406	     -5.54072739	     11.80264201	     -3.55242492	     -9.71230470	     23.89467969	     23.89467969	     17.62072819	    -16.25383027	      4.77014903	    -10.08995555	      7.65745386	      2.73071027	    -12.66837873	    -13.08380370	     -4.87806376	     24.90109944	     46.48948677	      0.00000000	      0.00000000	     35.62980648	    -18.41907937	      3.90450684	     51.16540543	     46.25039161	      0.00000000	      0.00000000
     51.97000000	     -3.60741662	     -4.20946148	     -9.43577828	      0.99382599	      0.93045322	      0.40941041	     26.58414154	     -2.32830558	     -1.02059099	     34.36656027	     34.36656027	      8.76625400	     -3.55599961	     -5.00930585	     11.25018715	     -3.66360219	    -10.29524380	     22.74221946	     22.74221946	     16.85383414	    -16.03069205	      2.97276421	     -9.99833259	      7.53726788	      2.68752718	    -14.86117581	    -12.83977054	     -4.93265425	     26.15309081	     46.40652375	      0.00000000	      0.00000000	     36.47933605	    -18.67376096	      1.01855619	     53.91291027	     46.56748965	      0.00000000	      0.00000000
     51.99200000	     -4.06042605	     -4.12215561	     -9.77945661	      0.99340999	      0.93046660	      0.41223250	     26.06272470	     -1.84971986	     -1.25977821	     29.70270567	     29.70270567	      8.46728137	     -1.15357400	     -4.09390252	     10.99799463	     -3.77015532	    -10.69173678	     22.00693344	     22.00693344	     16.86218825	    -15.71760276	      2.84522527	     -9.64546626	      7.38267846	      2.69058033	    -16.17264663	    -12.40664864	     -4.85112935	     25.79793045	     46.40115403	      0.00000000	      0.00000000	     37.87044588	    -19.30689814	      0.53405138	     54.78556919	     46.63452776	      0.00000000	      0.00000000
     52.01400000	     -4.09184564	     -4.04130408	    -10.06484035	      0.99373472	      0.93078096	      0.41505939	     24.99021939	     -1.62671996	     -2.22562067	     25.41759031	     25.41759031	      8.18791799	      2.39489803	     -2.82736614	     10.17913614	     -3.81485963	    -11.24139981	     21.15125688	     21.15125688	     16.80676773	    -15.20857900	      2.33695000	     -9.86412447	      7.25989940	      3.07363194	    -17.61262663	    -12.09939056	     -4.79872699	     25.58421259	     46.39009865	      0.00000000	      0.00000000	     39.14263709	    -19.52583910	     -0.32822618	     56.29080441	     46.74148482	      0.00000000	      0.00000000
     52.03600000	     -4.33797591	     -3.67699737	    -10.36797883	      0.99426999	      0.93022343	      0.41807780	     24.63915545	     -1.69189039	     -3.32360631	     22.50388138	     22.50388138	      8.57962082	      6.18829328	      0.52856611	      9.64334757	     -3.61565965	    -11.92710045	     20.27639912	     20.27639912	     16.08125351	    -14.96788205	      0.18863939	     -9.71140951	      6.78850852	      2.96733798	    -18.81483071	    -11.70767374	     -4.85953591	     26.50176230	     46.33589191	      0.00000000	      0.00000000	     39.57882964	    -19.48040643	     -3.05192804	     59.07687184	     47.01759838	      0.00000000	      0.00000000
